
<svg width="40" height="40" viewBox="0 0 40 40" fill="none" xmlns="http://www.w3.org/2000/svg" aria-label="CreatorFlow logo">
  <rect width="40" height="40" rx="8" fill="#3B82F6"/>
  <path d="M20 10C14.4772 10 10 14.4772 10 20C10 25.5228 14.4772 30 20 30C25.5228 30 30 25.5228 30 20C30 14.4772 25.5228 10 20 10ZM18 24V16L24 20L18 24Z" fill="white"/>
  <path d="M32 14.5C32 15.8807 30.8807 17 29.5 17C28.1193 17 27 15.8807 27 14.5C27 13.1193 28.1193 12 29.5 12C30.8807 12 32 13.1193 32 14.5Z" fill="#10B981"/>
</svg>
